<svg xmlns="http://www.w3.org/2000/svg" viewBox="0 0 512 512" style="width:256px;height:256px"><path d="M510.549 196.024a29.602 29.602 0 0 0-26.82-20.42l-147.935-6.686-52.09-138.642A29.6 29.6 0 0 0 256 11.089a29.6 29.6 0 0 0-27.704 19.187l-52.089 138.642-147.935 6.686a29.604 29.604 0 0 0-26.821 20.42 29.6 29.6 0 0 0 9.689 32.283l115.756 92.368-39.354 142.778a29.6 29.6 0 0 0 11.136 31.808 29.617 29.617 0 0 0 33.704.758L256 414.473l123.617 81.547a29.62 29.62 0 0 0 33.704-.758c9.982-7.245 14.405-19.92 11.131-31.808l-39.347-142.779 115.756-92.368a29.598 29.598 0 0 0 9.688-32.283z" fill="#4b4b4b"/></svg>